<?xml version="1.0" encoding="utf-8"?>
<!-- Generator: Adobe Illustrator 15.0.0, SVG Export Plug-In  -->
<!DOCTYPE svg PUBLIC "-//W3C//DTD SVG 1.1//EN" "http://www.w3.org/Graphics/SVG/1.1/DTD/svg11.dtd" [
	<!ENTITY ns_flows "http://ns.adobe.com/Flows/1.0/">
]>
<svg version="1.1"
	 xmlns="http://www.w3.org/2000/svg" xmlns:xlink="http://www.w3.org/1999/xlink" xmlns:a="http://ns.adobe.com/AdobeSVGViewerExtensions/3.0/"
	 x="0px" y="0px" width="286px" height="96px" viewBox="-0.261 48.171 286 96" enable-background="new -0.261 48.171 286 96"
	 xml:space="preserve">
<defs>
</defs>
<g>
	<g>
		<defs>
			<rect id="SVGID_1_" x="0.694" y="32.876" width="214.544" height="130.795"/>
		</defs>
		<clipPath id="SVGID_3_">
			<use xlink:href="#SVGID_1_"  overflow="visible"/>
		</clipPath>
		<g clip-path="url(#SVGID_3_)">
			<defs>
				<rect id="SVGID_2_" x="0.694" y="32.876" width="214.544" height="130.795"/>
			</defs>
			<clipPath id="SVGID_4_">
				<use xlink:href="#SVGID_2_"  overflow="visible"/>
			</clipPath>
			<path clip-path="url(#SVGID_4_)" fill-rule="evenodd" clip-rule="evenodd" fill="#283790" d="M58.866,80.107h5.78v3.303
				c0.858,0.904,2.459,1.063,3.633,1.651c1.099-0.608,1.83-1.583,2.477-2.643c1.78,0.972,3.043,2.461,4.624,3.633
				c0.11,1.003-2.225,1.942-2.312,2.808c-0.117,1.158,1.875,2.184,2.147,3.633c1.11-0.321,2.442-0.42,3.633-0.66
				c0.21,1.992,0.546,3.858,0.991,5.615c-0.919,0.566-2.495,0.477-3.633,0.825c-0.199,1.287-0.489,2.483-0.66,3.799
				c0.717,0.988,2.065,1.348,3.138,1.981c-1.005,1.692-1.987,3.407-2.973,5.119c-1.07-0.581-2.144-1.159-3.138-1.816
				c-1.047,0.88-2.115,1.738-3.138,2.643c0.343,1.198,0.855,2.228,1.156,3.468c-1.772,0.65-3.642,1.203-5.285,1.981
				c-0.674-0.867-0.998-2.085-1.321-3.303c-1.045-0.331-2.658-0.094-3.963-0.165c-0.86,0.792-0.952,2.352-1.486,3.468
				c-1.883-0.648-3.658-1.406-5.615-1.981c0.536-1.006,0.697-2.386,1.321-3.303c-0.923-1.059-2.156-1.809-3.138-2.808
				c-1.106,0.601-2.096,1.316-3.303,1.816c-0.809-1.833-1.97-3.314-2.808-5.119c1.121-0.53,2.114-1.189,3.138-1.816
				c-0.344-1.143-0.393-2.58-0.661-3.799c-0.946-0.484-2.271-0.592-3.633-0.66c0.099-2.213,0.717-3.907,0.991-5.945
				c1.121,0.256,2.419,0.333,3.468,0.66c0.862-1.009,1.386-2.356,2.146-3.468c-0.662-1.044-1.472-1.941-2.312-2.808
				c1.512-1.295,2.905-2.709,4.624-3.798c0.697,0.954,1.47,1.833,2.312,2.643c1.42-0.286,2.437-0.976,3.798-1.321V80.107z
				 M52.755,91.833c-3.978,5.98-0.619,15.613,7.101,16.68c6.9,0.953,11.982-3.606,12.716-8.918
				c1.103-7.986-5.122-13.534-12.716-12.386C56.434,87.727,54.273,89.55,52.755,91.833"/>
			<path clip-path="url(#SVGID_4_)" fill-rule="evenodd" clip-rule="evenodd" fill="#263A8F" d="M101.473,83.245
				c-0.026,1.736,0.129,3.652-0.331,4.955c-0.745-1.593-1.116-3.299-2.808-3.963c-2.664-1.047-5.767,0.414-5.78,2.973
				c-0.026,4.98,10.955,6.313,9.578,14.697c-0.787,4.795-7.588,7.014-13.211,4.459c0.165-1.871-0.362-4.436,0.331-5.779
				c0.738,1.138,0.68,2.523,1.321,3.468c2.602,3.832,9.762,1.377,7.927-3.634c-1.508-4.117-9.045-5.6-9.083-11.725
				C89.382,83.093,95.346,81.448,101.473,83.245"/>
			<path clip-path="url(#SVGID_4_)" fill-rule="evenodd" clip-rule="evenodd" fill="#263A8F" d="M165.714,86.053h0.495
				c5.381,5.134,10.474,10.555,15.854,15.688c-0.23-4.613-0.028-9.66-0.496-14.037c-0.26-1.006-2.355-0.176-2.642-1.156h7.597
				c-0.103,0.944-1.897,0.195-2.147,0.991c-0.672,6.209-0.011,13.751-0.825,19.817c-1.764-0.703-3.115-2.214-4.459-3.468
				c-3.92-3.656-7.674-7.812-11.726-11.561c0.185,4.55,0.003,9.466,0.66,13.542c0.458,0.644,1.797,0.405,2.478,0.826
				c-2.195,0.622-5.354,0.226-7.762,0.165c0.188-0.803,1.793-0.188,2.146-0.826C165.749,99.858,164.987,91.909,165.714,86.053"/>
			<path clip-path="url(#SVGID_4_)" fill-rule="evenodd" clip-rule="evenodd" fill="#263A8F" d="M119.474,86.218
				c0.582,0.823-0.103,3.036-0.166,4.294c-0.817-0.173-0.347-1.634-0.99-1.982c-1.675-0.527-3.899-0.504-6.11-0.495v7.101
				c2.154,0.384,6.098,0.274,7.101-0.496c-0.086,1.621-0.207,3.207-0.495,4.625c-0.322-3.058-3.524-2.377-6.605-2.478
				c0.679,2.629-1.266,7.089,0.825,8.423c2.04,1.301,7.555,0.411,7.102-2.478c0.766,1.057,0.082,3.334-0.33,4.294
				c-4.443,0.269-9.354-0.18-13.707-0.165c0.115-0.71,1.372-0.279,1.816-0.661c0.998-5.114,0.42-12.679,0.33-18.331
				c-0.243-0.967-1.742-0.679-2.643-0.991C109.471,85.904,115.601,87.189,119.474,86.218"/>
			<path clip-path="url(#SVGID_4_)" fill-rule="evenodd" clip-rule="evenodd" fill="#263A8F" d="M158.944,90.512
				c-0.817-0.592-0.233-1.404-0.991-1.982c-1.2-0.915-3.989-0.198-5.945-0.495c-0.379,2.098-0.06,4.894-0.165,7.266
				c2.482,0.005,6.041,0.208,7.102-0.661c0.004,1.711-0.181,3.232-0.496,4.625c-0.629-0.905-0.209-1.862-1.321-2.313
				c-1.254-0.507-3.471,0.149-5.119-0.165c0.362,2.477-1.42,7.058,0.66,8.423c1.94,1.271,7.682,0.479,7.102-2.478
				c0.738,1.03,0.167,3.419-0.33,4.294c-5.83-0.368-11.944,0.483-18.001,0c-4.517-0.36-5.935-5.731-8.588-8.423h-2.973
				c-0.354,2.293-0.083,5.36,0.331,7.432c0.478,0.623,2.208-0.006,2.477,0.826c-2.896,0.239-6.09,0.142-8.918,0
				c0.304-0.578,1.379-0.383,1.982-0.661c0.935-5.243,0.459-12.734,0.33-18.496c-0.303-0.963-2.347-0.186-2.643-1.156
				c7.035,0.211,16.853-1.716,16.02,5.615c-0.278,2.44-2.136,3.712-3.799,5.119c3.378,3.28,5.434,10.351,12.056,8.753
				c0.794-5.197,0.688-12.9,0.165-18.331c-0.338-0.818-1.822-0.489-2.642-0.826c3.869-0.974,9.999,0.311,13.872-0.661
				C159.766,87.07,159.059,89.34,158.944,90.512 M129.877,88.2c-0.283,2.542-0.263,6.208,0,8.752
				C138.099,100.296,137.623,84.993,129.877,88.2"/>
			<path clip-path="url(#SVGID_4_)" fill-rule="evenodd" clip-rule="evenodd" fill="#263A8F" d="M203.698,86.218
				c0.582,0.823-0.102,3.036-0.165,4.294c-0.83-0.161-0.292-1.689-0.991-1.982c-1.972-0.557-3.581-0.477-6.11-0.495v7.101
				c2.146,0.219,5.866,0.582,7.102-0.661c-0.061,1.701-0.209,3.314-0.496,4.79c-0.624-0.923-0.217-1.848-1.32-2.313
				c-1.275-0.537-3.595,0.132-5.285-0.165c0.679,2.629-1.265,7.089,0.826,8.423c2.04,1.301,7.554,0.411,7.101-2.478
				c0.766,1.057,0.083,3.334-0.33,4.294c-4.458,0.283-9.348-0.188-13.707-0.165c0.156-0.67,1.387-0.266,1.816-0.661
				c0.999-5.168,0.42-12.79,0.331-18.496c-0.396-0.76-1.784-0.528-2.643-0.826C193.696,85.904,199.825,87.189,203.698,86.218"/>
			<path clip-path="url(#SVGID_4_)" fill-rule="evenodd" clip-rule="evenodd" fill="#F14D21" d="M88.922,109.338h112.959
				c0.348,0,2.808-0.606,2.808,0.826c0,1.252-1.577,0.825-2.973,0.825H91.729c-0.942,0-3.484,0.615-2.973-1.155
				C88.743,109.6,88.729,109.366,88.922,109.338"/>
			<path clip-path="url(#SVGID_4_)" fill-rule="evenodd" clip-rule="evenodd" fill="#293984" d="M91.564,115.283
				c-0.548,0.388-1.073,0.799-2.146,0.661c-0.375,0.176-0.063,1.038-0.165,1.486h-1.156v-4.624
				C90.074,112.247,92.413,112.787,91.564,115.283 M89.417,115.118c0.848,0.078,1.233-0.308,1.156-1.156
				c-0.267-0.283-0.69-0.41-1.321-0.33C89.286,114.148,89.141,114.845,89.417,115.118"/>
			<path clip-path="url(#SVGID_4_)" fill-rule="evenodd" clip-rule="evenodd" fill="#293984" d="M92.39,112.642
				c1.64,0.031,2.406-0.084,3.468,0.495c0.403,0.894,0.119,2.097-0.661,2.312c0.456,0.646,0.876,1.326,1.486,1.817
				c-0.175,0.374-1.038,0.063-1.486,0.165c-0.394-0.652-0.625-1.467-1.486-1.651c-0.376,0.229-0.062,1.149-0.165,1.651H92.39
				V112.642z M93.546,114.788c0.891,0.12,1.498-0.044,1.321-0.991c-0.24-0.255-0.845-0.146-1.321-0.165V114.788z"/>
			<path clip-path="url(#SVGID_4_)" fill-rule="evenodd" clip-rule="evenodd" fill="#293984" d="M98.335,112.807
				c2.6-0.789,4.375,3.026,2.147,4.459C97.562,119.144,95.09,113.791,98.335,112.807 M100.152,114.293
				c-0.809-2.17-3.368,0.55-1.651,2.312h1.156C100.027,116.028,100.449,115.091,100.152,114.293"/>
			<path clip-path="url(#SVGID_4_)" fill-rule="evenodd" clip-rule="evenodd" fill="#293984" d="M102.133,117.431v-4.624
				c1.074-0.159,3.032-0.35,3.799,0.825C107.22,115.606,105.441,118.202,102.133,117.431 M103.29,116.604
				c1.824,0.255,2.161-1.776,1.321-2.808c-0.412-0.139-0.885-0.216-1.486-0.165C103.209,114.593,102.938,115.909,103.29,116.604"/>
			<path clip-path="url(#SVGID_4_)" fill-rule="evenodd" clip-rule="evenodd" fill="#293984" d="M106.922,112.642
				c0.294,0.308,0.42-0.135,0.991,0c0.462,0.969-0.132,2.994,0.33,3.963h0.991c0.992-0.604-0.427-3.62,0.825-3.963
				c1.302,0.237,0.515,3.266,0.496,4.293c-0.784,0.813-2.685,0.813-3.469,0C106.75,115.787,106.999,114.052,106.922,112.642"/>
			<path clip-path="url(#SVGID_4_)" fill-rule="evenodd" clip-rule="evenodd" fill="#293984" d="M115.345,112.972v1.155
				c-3.166-2.875-3.67,4.552,0,1.982c-0.317,2.734-3.859,1.43-3.964-0.826C111.291,113.305,113.002,111.941,115.345,112.972"/>
			<path clip-path="url(#SVGID_4_)" fill-rule="evenodd" clip-rule="evenodd" fill="#293984" d="M119.474,113.302
				c0.101,0.651-0.907,0.194-1.321,0.33v3.799h-1.156v-3.634c-0.176-0.375-1.038-0.063-1.486-0.165
				C115.133,112.035,119.499,112.341,119.474,113.302"/>
			<path clip-path="url(#SVGID_4_)" fill-rule="evenodd" clip-rule="evenodd" fill="#293984" d="M123.272,112.972v0.99
				c-0.502-0.339-2.213-1.01-2.312,0.165c0.658,0.553,1.965,0.457,2.477,1.156c0.514,2.479-2.04,2.556-3.633,1.982v-1.156
				c0.432,0.347,2,0.916,2.477,0.165c-0.217-0.994-1.839-0.583-2.312-1.321C118.987,112.881,121.794,112.087,123.272,112.972"/>
			<path clip-path="url(#SVGID_4_)" fill-rule="evenodd" clip-rule="evenodd" fill="#293984" d="M128.226,112.642
				c0.66,1.486,1.128,3.166,1.651,4.789h-1.155c0.136-0.467-0.233-0.428-0.165-0.826h-1.486c-0.245,0.141-0.355,0.416-0.331,0.826
				h-1.155C126.363,115.77,126.281,112.612,128.226,112.642 M127.236,115.613c0.29-0.095,0.97,0.2,0.99-0.165
				c-0.372-0.287-0.107-1.213-0.66-1.321C127.653,114.82,127.277,115.05,127.236,115.613"/>
			<path clip-path="url(#SVGID_4_)" fill-rule="evenodd" clip-rule="evenodd" fill="#293984" d="M130.539,112.642
				c0.651,0.129,0.505,0.129,1.156,0c0.51,0.92,1.149,1.712,1.486,2.807c0.543-0.557-0.301-2.502,0.495-2.807
				c1.401,0.414,0.319,3.313,0.66,4.789h-0.825c-0.965-0.742-1.292-2.121-1.981-3.138c-0.383,0.718-0.058,2.145-0.166,3.138h-0.99
				C130.473,115.878,130.167,113.922,130.539,112.642"/>
			<path clip-path="url(#SVGID_4_)" fill-rule="evenodd" clip-rule="evenodd" fill="#293984" d="M135.328,117.431
				c0.109-1.487-0.219-3.412,0.165-4.624C139.722,110.819,141.634,118.611,135.328,117.431 M136.484,116.604
				c2.074,0.52,2.238-2.233,1.156-2.973h-1.156V116.604z"/>
			<path clip-path="url(#SVGID_4_)" fill-rule="evenodd" clip-rule="evenodd" fill="#293984" d="M145.402,112.972v0.99
				c-0.533-0.334-1.765-0.829-2.313-0.165c0.101,1,1.521,0.682,2.147,1.156c1.385,2.127-1.536,3.248-3.304,2.313v-1.156
				c0.432,0.347,2,0.916,2.478,0.165c-0.217-0.994-1.839-0.583-2.313-1.321C141.117,112.881,143.923,112.087,145.402,112.972"/>
			<path clip-path="url(#SVGID_4_)" fill-rule="evenodd" clip-rule="evenodd" fill="#293984" d="M149.53,113.302
				c-0.112,0.713-1.499,0.152-2.146,0.33v0.661c0.267,0.559,1.975-0.324,1.981,0.495c0.173,0.943-1.228,0.313-1.816,0.495
				c-0.372,0.123-0.064,0.927-0.165,1.321c0.647,0.179,2.034-0.382,2.146,0.33c-0.198,1.067-2.303,0.229-3.303,0.496
				c0.115-0.879-0.191-4.005,0.165-4.624C147.079,112.716,149.602,112.096,149.53,113.302"/>
			<path clip-path="url(#SVGID_4_)" fill-rule="evenodd" clip-rule="evenodd" fill="#293984" d="M153.824,113.302
				c0.771,0.959-0.831,1.97-0.825,2.146c0.019,0.688,1.059,0.967,1.486,1.817c-1.739,0.91-1.748-1.333-2.973-1.486
				c-0.377,0.229-0.062,1.149-0.165,1.651h-1.156c0.099-0.9,0.058-3.07,0-4.624C151.638,112.465,152.918,112.615,153.824,113.302
				 M151.347,114.788c0.476-0.02,1.081,0.09,1.32-0.165v-0.826c-0.239-0.255-0.845-0.146-1.32-0.165V114.788z"/>
			<path clip-path="url(#SVGID_4_)" fill-rule="evenodd" clip-rule="evenodd" fill="#293984" d="M154.485,112.642
				c0.536-0.097,0.768,0.112,1.155,0.165c0.215,1.051,0.69,1.842,0.826,2.973c0.857-0.629,0.662-2.311,1.321-3.138
				c0.293,0.308,0.42-0.135,0.99,0c-0.33,1.762-1.111,3.072-1.486,4.789h-1.32C155.557,115.752,154.821,114.396,154.485,112.642"/>
			<path clip-path="url(#SVGID_4_)" fill-rule="evenodd" clip-rule="evenodd" fill="#293984" d="M159.109,112.642
				c0.392,0.142,1.606-0.094,2.477,0c0.079,0.574,0.031,1.021-0.66,0.825v2.973c0.334,0.217,0.921,0.18,0.66,0.991h-2.477
				c-0.079-0.575-0.031-1.022,0.66-0.826c-0.2-1.121,0.536-3.178-0.66-3.303V112.642z"/>
			<path clip-path="url(#SVGID_4_)" fill-rule="evenodd" clip-rule="evenodd" fill="#293984" d="M166.044,112.972v1.155
				c-2.988-3.051-3.579,4.585-0.165,1.982c0.736,1.359-1.028,1.471-1.321,1.486C160.833,117.787,161.771,110.782,166.044,112.972"/>
			<path clip-path="url(#SVGID_4_)" fill-rule="evenodd" clip-rule="evenodd" fill="#293984" d="M166.871,112.642
				c0.888,0.135,1.741-0.07,2.973,0v0.99h-1.982v0.661c0.219,0.553,1.857-0.315,1.817,0.495c0.172,0.943-1.229,0.313-1.817,0.495
				v1.321c0.61,0.105,1.646-0.214,1.982,0.165c0.073,1.34-2.169,0.363-3.138,0.661C166.805,115.878,166.5,113.922,166.871,112.642"
				/>
			<path clip-path="url(#SVGID_4_)" fill-rule="evenodd" clip-rule="evenodd" fill="#293984" d="M173.971,112.972v0.99
				c-0.614-0.227-2.143-1.079-2.312,0.165c0.559,0.542,1.719,0.483,2.312,0.991c1.389,2.409-3.748,3.694-3.633,0.991
				c0.539,0.285,2.09,0.95,2.643,0.165c-0.883-1.173-2.811-0.594-2.478-2.478C170.713,112.611,172.516,112.287,173.971,112.972"/>
			<path clip-path="url(#SVGID_4_)" fill-rule="evenodd" clip-rule="evenodd" fill="#293984" d="M177.605,112.642
				c0.362,0.958,0.071,2.57,0.165,3.798c0.267,0.559,1.975-0.323,1.981,0.495c-0.151,1.06-2.188,0.234-3.138,0.496
				C177.039,115.928,175.629,112.593,177.605,112.642"/>
			<path clip-path="url(#SVGID_4_)" fill-rule="evenodd" clip-rule="evenodd" fill="#293984" d="M182.724,112.972
				c0.166,0.551-0.229,0.541-0.66,0.495v2.973c0.334,0.217,0.921,0.18,0.66,0.991h-2.478c-0.079-0.575-0.03-1.022,0.661-0.826
				c-0.2-1.121,0.536-3.178-0.661-3.303v-0.495C180.788,112.562,182.415,112.455,182.724,112.972"/>
			<path clip-path="url(#SVGID_4_)" fill-rule="evenodd" clip-rule="evenodd" fill="#293984" d="M184.706,112.642
				c0.468,0.688,0.623,1.689,1.156,2.312c0.475-0.682,0.63-1.683,1.156-2.312c0.651,0.129,0.505,0.129,1.156,0v4.789h-0.991v-2.973
				c-0.822,0.278-0.327,1.875-1.486,1.816c-0.675-0.261-0.743-1.129-0.991-1.816c-0.382,0.663-0.057,2.034-0.165,2.973h-1.155
				C183.623,115.642,182.584,112.037,184.706,112.642"/>
			<path clip-path="url(#SVGID_4_)" fill-rule="evenodd" clip-rule="evenodd" fill="#293984" d="M189,112.642
				c0.774,0.106,1.978-0.217,2.478,0.165c0.128,0.568-0.092,0.788-0.661,0.66v2.973c0.067,0.373,0.969-0.087,0.661,0.66
				c-0.154,0.622-2.059,0.357-2.478,0.166c-0.128-0.569,0.092-0.789,0.661-0.661c-0.2-1.121,0.535-3.178-0.661-3.303V112.642z"/>
			<path clip-path="url(#SVGID_4_)" fill-rule="evenodd" clip-rule="evenodd" fill="#293984" d="M195.771,112.642v0.99h-1.321v3.799
				h-1.156v-3.634c-0.185-0.421-1.277,0.066-1.486-0.33v-0.66C192.716,112.637,194.256,112.638,195.771,112.642"/>
			<path clip-path="url(#SVGID_4_)" fill-rule="evenodd" clip-rule="evenodd" fill="#293984" d="M199.404,112.807v0.825h-1.981
				v0.661c0.267,0.559,1.975-0.324,1.981,0.495c0.173,0.943-1.228,0.313-1.816,0.495c-0.373,0.123-0.064,0.927-0.165,1.321h2.146
				c0.043,1.419-2.13,0.623-3.303,0.826v-4.624C196.792,112.594,198.924,112.558,199.404,112.807"/>
			<path clip-path="url(#SVGID_4_)" fill-rule="evenodd" clip-rule="evenodd" fill="#293984" d="M200.23,117.431
				c0.099-1.553-0.206-3.509,0.165-4.789C205.701,111.357,205.731,118.917,200.23,117.431 M201.385,116.604
				c1.869,0.281,2.185-1.429,1.651-2.643c-0.483-0.177-0.853-0.469-1.651-0.33V116.604z"/>
			<path clip-path="url(#SVGID_4_)" fill-rule="evenodd" clip-rule="evenodd" fill="#EF4D24" d="M26.332,113.302
				c2.352,1.231,8.257,1.253,9.248-1.651c0.396-1.163-0.37-2.645-0.826-3.468c-3.814-0.089-5.392,2.122-8.918,2.146
				c-4.348,0.029-7.136-4.055-11.89-2.146c1.298-0.889,3.036-1.771,5.615-1.817c3.238-0.059,5.211,0.485,7.101-0.825
				c0.216-0.149,0.427-0.629,0.661-0.496c0.406,0.232,0.281-2.596-1.486-2.972c-1.77-0.378-3.018,0.385-3.963,0.495
				c-2.412,0.281-4.414-0.31-4.955-0.495c-1.906-0.655-3.356-1.706-4.789-3.138c-0.455-0.456-0.364-0.604-0.826-0.826
				c-2.067-0.998-6.799-0.206-8.587,0.33c2.917-2.404,4.783-4.459,9.083-4.459c4.854,0,10.41,5.062,13.707,0
				c1.023-4.626-4.49-4.631-7.267-3.468c0.896-1.826,3.146-3.596,6.11-3.633c3.52-0.044,5.569,2.774,8.092,2.643
				c3.13-0.164,4.507-4.934,1.156-5.78c-2.879-0.727-4.437,0.253-6.275-1.156c-0.217-0.167-0.208-0.333-0.495-0.661
				c-0.256-0.292-0.583-0.782-1.321-2.147c2.281,1.49,5.449-0.75,8.257-0.826c2.99-0.081,5.42,1.951,9.248,1.651
				c2.848-0.223,5.857-1.491,8.917-2.312c5.879-1.578,11.84-2.561,17.505-0.331c0.305,0.12,1.393,0.107,1.321,0.826
				c1.175,0.175,3.218,1.032,3.963,1.982c0.617,0.787-0.379,0.437,0.496,0.496c0.729,0.048,2.479,2.487,3.303,3.468
				c2.936,3.495,5.614,9.816,4.294,17.175c-0.444,2.477-1.703,4.86-2.808,6.606c-3.729,5.895-9.269,11.266-20.478,10.569
				c-4.812-0.299-9.477-2.487-14.202-3.138C38.401,114.991,29.25,119.957,26.332,113.302 M61.508,78.952
				c-10.484,0.104-19.68,8.742-18.496,20.973c0.788,8.142,7.531,15.777,16.514,16.515c6.963,0.571,11.24-1.636,14.533-4.459
				c0.726-0.623,1.352-1.571,2.312-1.651c-0.259-0.658,0.493-1.334,0.826-1.816c1.294-1.877,2.633-4.205,3.138-6.771
				c1.485-7.549-1.844-13.371-4.789-17.34c-1.745-0.804-3.213-2.493-5.12-3.468C68.319,80.085,64.947,78.917,61.508,78.952"/>
			<path clip-path="url(#SVGID_4_)" fill-rule="evenodd" clip-rule="evenodd" fill="#263A8F" d="M107.087,85.062
				c10.646-4.762,24.606-7.927,39.801-7.927c15.413,0,28.789,3.641,39.635,8.092c-10.61-3.4-24.981-6.936-39.966-6.936
				C132.204,78.291,118.542,80.886,107.087,85.062"/>
			<path clip-path="url(#SVGID_4_)" fill-rule="evenodd" clip-rule="evenodd" fill="#FFFFFF" d="M70.426,80.933
				c1.907,0.976,3.375,2.665,5.12,3.468c2.945,3.969,6.274,9.791,4.789,17.34c-0.505,2.566-1.844,4.895-3.138,6.771
				c-0.333,0.482-1.085,1.158-0.826,1.816c-0.96,0.08-1.586,1.028-2.312,1.651c-3.293,2.823-7.57,5.03-14.533,4.459
				c-8.983-0.737-15.727-8.373-16.514-16.515c-1.184-12.231,8.012-20.87,18.496-20.973C64.947,78.917,68.319,80.085,70.426,80.933
				 M58.866,83.741c-1.362,0.345-2.378,1.035-3.798,1.321c-0.842-0.81-1.615-1.688-2.312-2.643
				c-1.719,1.089-3.112,2.503-4.624,3.798c0.84,0.867,1.649,1.764,2.312,2.808c-0.76,1.111-1.285,2.458-2.146,3.468
				c-1.049-0.328-2.348-0.404-3.468-0.66c-0.274,2.038-0.892,3.732-0.991,5.945c1.362,0.068,2.687,0.176,3.633,0.66
				c0.268,1.219,0.316,2.656,0.661,3.799c-1.024,0.627-2.017,1.286-3.138,1.816c0.838,1.805,1.999,3.286,2.808,5.119
				c1.207-0.5,2.197-1.216,3.303-1.816c0.982,0.999,2.215,1.749,3.138,2.808c-0.625,0.917-0.786,2.297-1.321,3.303
				c1.957,0.575,3.731,1.333,5.615,1.981c0.535-1.116,0.626-2.676,1.486-3.468c1.305,0.071,2.918-0.166,3.963,0.165
				c0.324,1.218,0.647,2.436,1.321,3.303c1.643-0.778,3.513-1.331,5.285-1.981c-0.301-1.24-0.813-2.27-1.156-3.468
				c1.023-0.904,2.091-1.763,3.138-2.643c0.994,0.657,2.067,1.235,3.138,1.816c0.985-1.712,1.968-3.427,2.973-5.119
				c-1.073-0.634-2.42-0.993-3.138-1.981c0.171-1.315,0.461-2.512,0.66-3.799c1.138-0.349,2.714-0.259,3.633-0.825
				c-0.445-1.757-0.781-3.624-0.991-5.615c-1.191,0.24-2.523,0.339-3.633,0.66c-0.272-1.449-2.264-2.475-2.147-3.633
				c0.087-0.865,2.422-1.805,2.312-2.808c-1.581-1.172-2.844-2.661-4.624-3.633c-0.647,1.06-1.378,2.035-2.477,2.643
				c-1.174-0.588-2.775-0.748-3.633-1.651v-3.303h-5.78V83.741z"/>
		</g>
		<g clip-path="url(#SVGID_3_)">
			<text transform="matrix(1 0 0 1 53.416 100.8311)"><tspan x="0" y="0" fill="#EF4D24" font-family="'MyriadPro-Bold'" font-size="6.1929">S.</tspan><tspan x="4.954" y="0" fill="#EF4D24" font-family="'MyriadPro-Bold'" font-size="6.1929">P</tspan><tspan x="7.667" y="0" fill="#EF4D24" font-family="'MyriadPro-Bold'" font-size="6.1929">.S.L</tspan></text>
		</g>
	</g>
</g>
</svg>
